<svg width="30" height="40" viewBox="0 0 30 40" fill="none" xmlns="http://www.w3.org/2000/svg">
<path d="M22.8403 12.2212L14.9729 14.6133C14.7071 14.7019 14.4236 14.507 14.3881 14.2235L13.5199 6.78135L13.3604 5.34608L12.7934 0.402377C12.7402 -0.093765 12.0315 -0.146922 11.8897 0.331501L10.5253 5.32836L10.1355 6.76363L5.82969 22.6579C5.72337 23.0477 6.14864 23.3844 6.50303 23.1718L23.2124 13.0363C23.6731 12.7705 23.3541 12.0617 22.8403 12.2212Z" fill="#FF2E00"/>
<path d="M6.48528 27.7787L14.3527 25.3866C14.6185 25.298 14.902 25.4929 14.9374 25.7764L15.8057 33.2185L15.9651 34.6538L16.5322 39.5975C16.5853 40.0936 17.2941 40.1468 17.4359 39.6684L18.8002 34.6715L19.1901 33.2363L23.4959 17.342C23.6022 16.9522 23.1769 16.6155 22.8225 16.8281L6.11318 26.9636C5.65247 27.2294 5.97142 27.9382 6.48528 27.7787Z" fill="#FF2E00"/>
<path d="M5.01459 33.2188C3.03002 33.2188 1.43527 31.624 1.43527 29.6395V10.3608C1.43527 8.37621 3.03002 6.78146 5.01459 6.78146H6.02459C6.34353 6.78146 6.62704 6.56883 6.71564 6.24988C6.83968 5.78918 6.50301 5.34619 6.02459 5.34619H5.01459C2.25036 5.34619 0 7.59655 0 10.3608V29.6572C0 32.4214 2.25036 34.6717 5.01459 34.6717H11.5885C12.0137 34.6717 12.3504 34.2996 12.2972 33.8744C12.2618 33.52 11.9429 33.2365 11.5885 33.2365H5.01459V33.2188Z" fill="#FF2E00"/>
<path d="M24.311 5.34619H17.7371C17.3118 5.34619 16.9751 5.7183 17.0283 6.14356C17.0637 6.49795 17.3827 6.78146 17.7371 6.78146H24.311C26.2955 6.78146 27.8903 8.37621 27.8903 10.3608V29.6572C27.8903 31.6417 26.2955 33.2365 24.311 33.2365H23.301C22.982 33.2365 22.6985 33.4491 22.6099 33.7681C22.4859 34.2288 22.8225 34.6717 23.301 34.6717H24.311C27.0752 34.6717 29.3255 32.4214 29.3255 29.6572V10.3608C29.3255 7.57884 27.0752 5.34619 24.311 5.34619Z" fill="#FF2E00"/>
</svg>
